# xmcd
#
# Track frame offsets:
#	150
#	24341
#	42386
#	65881
#	82100
#	101199
#	116714
#	139000
#	162916
#	184301
#	201844
#
# Disc length: 2867 seconds
#
# Revision: 1
# Processed by: cddbd v1.5.2PL0 Copyright (c) Steve Scherf et al.
# Submitted via: audiograbber 1.83.01
#
DISCID=a30b310b
DTITLE=Mark Knopfler - Privateering - CD 2
DYEAR=2012
DGENRE=Blues
TTITLE0=Kingdom Of Gold
TTITLE1=Got To Have Something
TTITLE2=Radio City Serenade
TTITLE3=I Used To Could
TTITLE4=Gator Blood
TTITLE5=Bluebird
TTITLE6=Dream Of The Drowned Submariner
TTITLE7=Blood And Water
TTITLE8=Today Is Okay
TTITLE9=After The Beanstalk
TTITLE10=Your Perfect Song (Bonus)
EXTD=
EXTT0=
EXTT1=
EXTT2=
EXTT3=
EXTT4=
EXTT5=
EXTT6=
EXTT7=
EXTT8=
EXTT9=
EXTT10=
PLAYORDER=
